<svg id="Layer_1" data-name="Layer 1" xmlns="http://www.w3.org/2000/svg" viewBox="0 0 247.41 62.31"><defs><style>.cls-1{fill:#434343;}.cls-2{isolation:isolate;}.cls-3{fill:#4d6a99;}</style></defs><title>cih-logo</title><path class="cls-1" d="M30.63,63.42q-14.56,0-22.19-8.1t-7.63-23A35.23,35.23,0,0,1,3.14,19.08,28.46,28.46,0,0,1,9.51,9.25a26.67,26.67,0,0,1,9.66-6.07A34.75,34.75,0,0,1,31.32,1.11a39.3,39.3,0,0,1,6.89.56A43.68,43.68,0,0,1,43.64,3a27,27,0,0,1,3.88,1.51c1,.52,1.78.92,2.24,1.21L45.88,16.53A32.44,32.44,0,0,0,39.46,14a30.59,30.59,0,0,0-8.32-1,18.36,18.36,0,0,0-6.07,1,13.65,13.65,0,0,0-5.26,3.31,16.61,16.61,0,0,0-3.66,5.91,24.72,24.72,0,0,0-1.38,8.79,31,31,0,0,0,.91,7.71,16.29,16.29,0,0,0,2.92,6.16A14,14,0,0,0,23.91,50a18.91,18.91,0,0,0,7.92,1.5,36.12,36.12,0,0,0,5.26-.34,38.38,38.38,0,0,0,4.14-.82,21.57,21.57,0,0,0,3.19-1.08c.91-.4,1.75-.77,2.5-1.12l3.7,10.78a31.85,31.85,0,0,1-8,3.1A46.69,46.69,0,0,1,30.63,63.42Z" transform="translate(-0.81 -1.11)"/><path class="cls-1" d="M59.24,2.49H72.68V62.21H59.24Z" transform="translate(-0.81 -1.11)"/><path class="cls-1" d="M122.49,2.49h13.45V62.21H122.49V36.87H99.92V62.21H86.47V2.49H99.92V25.33h22.57Z" transform="translate(-0.81 -1.11)"/><g class="cls-2"><path class="cls-3" d="M161.38,19.75c-2.77,0-4.89-.77-6.34-2.31a9.22,9.22,0,0,1-2.18-6.57,10,10,0,0,1,.67-3.78,8.08,8.08,0,0,1,1.82-2.81,7.57,7.57,0,0,1,2.76-1.73,9.77,9.77,0,0,1,3.47-.6,11.81,11.81,0,0,1,2,.16,13.68,13.68,0,0,1,1.55.37,7.77,7.77,0,0,1,1.11.44c.29.14.5.26.64.34l-1.11,3.1a8.94,8.94,0,0,0-1.84-.71,8.58,8.58,0,0,0-2.37-.3,5.22,5.22,0,0,0-1.74.3,3.8,3.8,0,0,0-1.5.95,4.68,4.68,0,0,0-1,1.68,7.15,7.15,0,0,0-.39,2.51,9.11,9.11,0,0,0,.26,2.21,4.64,4.64,0,0,0,.84,1.76,4,4,0,0,0,1.51,1.17,5.49,5.49,0,0,0,2.26.43,11.35,11.35,0,0,0,1.51-.1c.44-.07.83-.14,1.18-.23a8.72,8.72,0,0,0,.91-.31l.71-.32,1.06,3.07a8.73,8.73,0,0,1-2.29.89A13.41,13.41,0,0,1,161.38,19.75Z" transform="translate(-0.81 -1.11)"/></g><path class="cls-3" d="M181.7,19.41c-.19-.59-.4-1.2-.62-1.83s-.43-1.24-.65-1.86h-6.66c-.22.62-.43,1.24-.65,1.87s-.42,1.23-.61,1.82h-4q1-2.76,1.82-5.1c.58-1.56,1.14-3,1.69-4.4s1.1-2.69,1.63-3.93,1.1-2.45,1.67-3.63H179c.56,1.18,1.12,2.39,1.66,3.63s1.09,2.55,1.65,3.93,1.11,2.84,1.69,4.4,1.19,3.26,1.83,5.1Zm-4.62-13.2c-.08.25-.21.59-.37,1s-.36.91-.57,1.47-.44,1.18-.71,1.85-.52,1.38-.79,2.11h4.88c-.26-.74-.51-1.44-.76-2.12s-.48-1.29-.7-1.85-.41-1-.58-1.47S177.18,6.46,177.08,6.21Z" transform="translate(-0.81 -1.11)"/><path class="cls-3" d="M193,2.15a10.56,10.56,0,0,1,5.88,1.37,4.72,4.72,0,0,1,2.05,4.24,4.79,4.79,0,0,1-.83,2.92,5.36,5.36,0,0,1-2.37,1.76q.51.64,1.08,1.47c.38.55.75,1.12,1.12,1.72s.73,1.22,1.07,1.87.67,1.29,1,1.91h-4.29l-1-1.7c-.32-.57-.65-1.13-1-1.67s-.68-1.06-1-1.54-.66-.92-1-1.32h-1.9v6.23H188V2.59a23.64,23.64,0,0,1,2.6-.34C191.49,2.18,192.29,2.15,193,2.15Zm.22,3.28c-.28,0-.53,0-.75,0l-.63,0v4.63h1.08A6.6,6.6,0,0,0,196,9.59,2,2,0,0,0,197,7.74,1.85,1.85,0,0,0,196,6,5.75,5.75,0,0,0,193.22,5.43Z" transform="translate(-0.81 -1.11)"/><path class="cls-3" d="M204.42,19.41V2.35h11.52V5.57h-7.68V8.92h6.82v3.15h-6.82v4.11h8.25v3.23Z" transform="translate(-0.81 -1.11)"/><path class="cls-3" d="M219.34,19.41V2.35h11.52V5.57h-7.68V8.92H230v3.15h-6.82v4.11h8.25v3.23Z" transform="translate(-0.81 -1.11)"/><path class="cls-3" d="M239.26,2.15a10.56,10.56,0,0,1,5.88,1.37,4.75,4.75,0,0,1,2.05,4.24,4.79,4.79,0,0,1-.83,2.92A5.36,5.36,0,0,1,244,12.44q.51.64,1.08,1.47c.38.55.75,1.12,1.12,1.72s.73,1.22,1.07,1.87.66,1.29,1,1.91h-4.29l-1-1.7c-.32-.57-.65-1.13-1-1.67s-.68-1.06-1-1.54-.66-.92-1-1.32h-1.9v6.23h-3.84V2.59a23.64,23.64,0,0,1,2.6-.34C237.75,2.18,238.55,2.15,239.26,2.15Zm.22,3.28c-.28,0-.53,0-.75,0l-.63,0v4.63h1.08a6.6,6.6,0,0,0,3.11-.54,2,2,0,0,0,.93-1.85A1.85,1.85,0,0,0,242.27,6,5.75,5.75,0,0,0,239.48,5.43Z" transform="translate(-0.81 -1.11)"/><path class="cls-3" d="M153.6,23.9h3.84V41H153.6Z" transform="translate(-0.81 -1.11)"/><path class="cls-3" d="M172.83,41q-1.65-2.93-3.57-5.79a58.21,58.21,0,0,0-4.09-5.39V41h-3.79V23.9h3.13c.54.54,1.14,1.2,1.79,2s1.33,1.63,2,2.53,1.36,1.82,2,2.78,1.31,1.88,1.9,2.77V23.9h3.81V41Z" transform="translate(-0.81 -1.11)"/><path class="cls-3" d="M163.89,45.44h3.84V62.5h-3.84V55.26h-6.45V62.5H153.6V45.44h3.84V52h6.45Z" transform="translate(-0.81 -1.11)"/><path class="cls-3" d="M171.67,62.5V45.44h11.52v3.22h-7.68V52h6.82v3.15h-6.82v4.11h8.25V62.5Z" transform="translate(-0.81 -1.11)"/><path class="cls-3" d="M198,62.5c-.19-.59-.4-1.2-.62-1.83s-.43-1.24-.65-1.86h-6.66c-.22.62-.43,1.24-.65,1.87s-.42,1.23-.6,1.82h-4q1-2.76,1.82-5.1c.58-1.56,1.14-3,1.7-4.4s1.09-2.69,1.63-3.93,1.09-2.45,1.66-3.63h3.64c.56,1.18,1.12,2.39,1.66,3.63s1.09,2.55,1.64,3.93,1.12,2.84,1.7,4.4,1.19,3.26,1.83,5.1Zm-4.62-13.2c-.08.25-.21.59-.37,1s-.36.91-.57,1.47-.44,1.18-.7,1.85-.53,1.38-.8,2.11h4.88c-.26-.74-.51-1.44-.76-2.12s-.48-1.29-.7-1.85-.41-1.05-.58-1.47S193.52,49.55,193.42,49.3Z" transform="translate(-0.81 -1.11)"/><g class="cls-2"><path class="cls-3" d="M215.75,59.2v3.3h-11.4V45.44h3.84V59.2Z" transform="translate(-0.81 -1.11)"/></g><path class="cls-3" d="M228.94,45.44v3.27H223.8V62.5H220V48.71h-5.15V45.44Z" transform="translate(-0.81 -1.11)"/><path class="cls-3" d="M241.7,45.44h3.84V62.5H241.7V55.26h-6.45V62.5h-3.84V45.44h3.84V52h6.45Z" transform="translate(-0.81 -1.11)"/></svg>